<svg width="350" height="350" fill="none" xmlns="http://www.w3.org/2000/svg"><path d="M175 350c96.65 0 175-78.35 175-175S271.65 0 175 0 0 78.35 0 175s78.35 175 175 175z" fill="#143D85"/><path fill-rule="evenodd" clip-rule="evenodd" d="M236.191 32.962c3.613-.734 4.631.667 7.028.946-1.626 1.183-4.653.947-6.743 1.637-.504-.547-.564-1.44-.285-2.584zm-30.486 14.466c-1.122 1.938-1.609 4.46-4.379 4.756-1.521-1.423 1.44-1.8 1.998-3.328-1.905 1.133-3.777 2.305-6.831 2.283.433-1.128-.383-1.215-1.253-1.242-.241-1.763 1.664-1.385 1.905-2.688 3.081.115 5.057 2.053 8.56.219zm37.548 3.328c-.783 1.347-2.661 2.764-3.87 1.478.733-1.357 2.616-2.775 3.87-1.478zm11.597 12.37c1.483.63 3.448.903 4.724 1.702-1.407 1.495-4.948.022-4.724-1.702zM46.042 74.118c2.31-.028 5.637-.914 4.767 1.707-2.342.022-5.654.92-4.767-1.707zm180.021-6.328c.317 2.627-3.947 3.65-2.994.8.711-.543 1.746-.784 2.994-.8zm5.091-.247c1.796-.033 1.297 2.342.186 3.218-1.85.028-1.352-2.348-.186-3.218zM82.649 87.188c-1.106 2.205-2.66 3.962-5.731 4.176.175-3.126 3.366-3.246 5.73-4.177zM221.57 94.55c2.507-.563 2.485.964 2.474 2.469-2.512.57-2.474-.963-2.474-2.469zm52.279 5.167c3.394-.115-1.078 1.544-1.122 2.655 7.422-1.303 4.324 3.678 6.957 5.473-2.654-.208-3.153-.657-4.559 1.516-1.577 0 .158-2.747-.066-3.875-1.965.963-6.114 2.458-8.084 1.04.503-4.061 3.984-5.14 6.874-6.82m-16.314 3.426c.996-1.341 6.207-1.417 4.855 1.046-2.107 1.669-3.448-.476-4.855-1.046zm-28.32 5.928c.975-.006 1.944-.099 2.907-.148.148 2.491-3.914 2.688-2.907.148zm.047 8.413c-.624 2.966-8.856 4.833-12.682 7.104 3.235-3.36 8.84-4.324 12.682-7.104zm-5.247 57.226c-1.796.482-3.46 1.106-5.879.936-.974-3.514-5.594-4.006-9.19-5.364-1.877.247.821 1.079-.416 2.611-1.029-1.029-1.461-2.556-3.925-2.392 7.034-5.074 16.914.121 19.41 4.209zm11.894 1.998c-2.238 1.565-5.977 1.647-9.655 1.784.389-4.401 7.849-2.781 9.655-1.784zm-20.417 1.664c1.713-.301 2.764-.033 3.525.476-.066 1.675-5.299 2.502-3.525-.476zm33.396 6.754l2.162-.109c-.498 1.532-1.291 2.742-2.096 3.99-2.901-.936 1.401-1.801-.066-3.881zm-53.316 156.061a98.33 98.33 0 012.168-.114c.367 1.187.843 2.337.821 3.858-1.609-.771-2.644-1.97-2.989-3.744z" fill="#00783A"/><path fill-rule="evenodd" clip-rule="evenodd" d="M225.186 42.589c2.419-1.226-.657-6.377 3.591-8.6 1.467-.081 2.912-.152 4.34-.218-.191 1.09-.361 2.184-.542 3.262.389 1.752 3.416 1.303 5.468 1.67 7.395-6.71 9.464 5.04 16.421.481-.433 1.336-2.151 1.38-2.584 2.715 3.646.17 6.716.816 8.961 2.146.229 1.987-2.179 1.352-1.976 3.333 2.873 2.682 8.429 3.175 12.063 5.233-.585 2.228-3.191 2.38-3.667 4.713-3.749.098-3.766-2.874-6.601-3.547-1.078.695-2.792.75-3.202 2.102.569 3.645 4.97 4.149 5.107 8.16-.307 1.933-4.926 3.4-1.473 4.604-2.293.936-4.652-2.912-9.857-1.462-.822-5.692-10.203-4.723-14.85-5.73 1.231-2.332 5.205-1.905 8.325-2.36.777-.498.044-3.032 2.096-3.984 3.416-.958 3.542 2.507 6.399.334.805-2.37-1.817-1.889-3.996-1.763-.563-9.901-15.523-9.65-30.892-8.818-4.516-2.917-2.436-11.116 6.097-10.662 1.314.99 1.144 3.191.465 5.802-1.215-4.368-2.304 2.425.291 2.589h.016zm34.352 22.233c-1.275-.799-3.246-1.067-4.724-1.702-.224 1.73 3.317 3.202 4.724 1.702z" fill="#00783A"/><path fill-rule="evenodd" clip-rule="evenodd" d="M124.72 54.691c3.804-.296 9.316-3.344 13.208-5.84 7.641 1.33 16.754 2.052 24.707 2.67.542 2.064-2.419.603-1.866 2.677 4.203 2.091 12.458-.93 13.58 4.51.875-2.972 3.048-4.586 4.734-6.71-1.631-.465-3.481 1.078-.826.684-.92 1.938-2.272-.268-3.624.18 7.762-4.225 14.719 5.376 23.903-1.176 1.817-.197 2.08.909 3.416 1.122 2.249-.788 3.005-3.07 4.378-4.751.318-1.949-3.251-.679-4.006-1.746-.044-2.32 1.363-3.191 2.206-4.63 7.121-1.013 4.729 5.834 7.175 8.702 2.836.028 2.699-2.895 5.474-2.868 1.686 1.243.378 4.937 1.839 6.388 3.306-.98 5.162-3.438 5.528-7.4 3.164-.334 4.637.678 6.191 1.642-2.2 2.764.131 3.64-.339 6.491-2.573 1.254-4.927 2.693-9.032 2.392-2.08 4.828 8.878 3.465 8.621 8.643-4.904-3.065-7.055 2.622-11.697 1.226-.974-1.336 2.392-3.268 1.817-6.58.214-2.046-5.101-1.23-6.398-.311.126 1.554 2.474 1.308 4.006 1.746-6.874 4.275-15.747 7.767-18.774 17.761 1.237 2.343 6.12 1.68 4.702 6.23 6.99.596 9.414 4.98 17.149 4.98-2.119 6.612.728 9.13 4.674 10.761 4.926-3.19 4.149-12.085 8.385-15.944-2.572-5.233-.366-10.882 2.097-16.935 7.608-3.016 10.312 2.167 15.304 3.125.367 2.397-2.097 1.949-2.118 3.985.541 1.647 1.313 3.054 2.983 3.738 4.318-.186 7.411-5.024 10.093-4.384.569 6.65 3.071 11.702 10.038 13.098-.377 2.42-4.658.953-4.915 3.487 1.489 1.905 4.538-1.002 7.263-.367 1.057 1.489 1.254 3.684-.284 5.846-9.699 3.99-25.332 2.009-29.891 11.182 3.196.876 6.311-4.827 12.151-3.837 0 2.02-1.883 2.168-3.957 2.14-.832 5.255 5.637 2.507 5.446 6.202 3.027-.011 3.459-2.638 6.201-2.89-2.939 3.886-8.538 5.123-12.753 7.756.356-2.945 3.339-3.268 5.107-4.795-4.675-.071-16.881 2.901-15.195 9.168-4.17 2.649-9.879 3.815-10.936 9.601-1.188-.526-.783-2.337-2.441-2.469.821 9.3-7.608 14.177-14.16 20.127.131 4.778 1.363 8.626 1.363 13.519-4.516 1.352-3.717-6.218-4.888-9.464-3.218-.744-6.612-1.302-11.39-.728-1.642 1.287-.603 2.392-.657 3.909-6.278-1.812-13.717-1.856-18.424 2.868-3.503 10.509-4.691 24.083 9.65 19.579 1.253-1.03 1.669-2.907 2.216-4.637 2.141-.908 3.996-2.08 6.853-2.277 1.489 3.766-3.481 6.996-3.415 11.807.887 2.288 7 .23 9.097 1.494-.931 5.654-2.972 12.212 1.319 13.531 4.368-.586 8.982-1.943 9.858 1.456 3.388-4.872 5.922-5.966 10.826-8.95 1.517 1.068-3.563 4.741-.268 5.846 2.359-1.237 2.753-4.351 4.604-6.054 3.026 2.759 8.139 3.777 15.293 3.115 1.675 10.438 20.033 7.094 20.662 18.396-1.751 2.579-4.674 3.985-6.185 6.777 2.25 1.729 5.988-4.844 8.407-3-.333 2.704-4.324 1.741-4.991 4.127 3.076 2.283 5.944-2.134 8.385-3.005 6.114 4.521 18.763 3.629 22.814 9.869-1.046 7.346-6.059 10.706-10.367 14.768-1.861 8.785-4.007 17.296-9.486 22.469-8.018.624-12.321 4.926-17.247 8.62-.865 8.928-9.858 23.17-20.553 19.798-2.053 2.08 2.529 3.492 1.79 6.377-2.075 3.492-7.433 3.7-11.615 5.101-2.085 2.228-2.983 5.643-8.008 4.926-.345 1.987.11 3.301 1.533 3.804-3.503 1.818-3.892 6.788-7.827 8.172-.887 3.131-.258 5.08 2.747 5.036-5.643 5.003-8.757 12.556-15.035 16.924 1.171-3.782-2.064-3.924-5.047-4.28 2.633-1.943-.246-9.382 5.036-8.654.864-3.36-4.319-4.663-4.084-5.632.345-2.868 2.075-.279 2.874-.148 2.551-2.961 3.76-10.268 2.178-13.043 6.24-14.817 12.518-32.841 16.53-51.96-10.246-6.169-13.443-18.156-16.475-30.247 0-2.042 2.228-1.834 2.704-3.377-3.656-8.862 16.235-18.589 6.634-26.859-5.879 4.461-9.13-1.659-13.443-1.286.854-9.508-11.681-7.959-16.53-12.77-8.917-.257-20.783-2.168-20.329-11.938-5.446-6.174-7.586-15.101-13.793-20.684-2.009 7.296 4.236 12.66 6.267 18.467-8.084-4.521-7.756-12.638-10.903-20.827-9.76-5.873-15.315-18.024-8.386-35.829 2.015.465 2.359.711 3.706-.838-1.297-4.548-4.363-7.624-10.028-8.555 2.075-1.927.455-5.101-1.664-3.164-2.008-.257 1.32-1.061 1.057-1.992-.345-1.407-2.272-1.5-3.197-2.43 4.817-7.986-7.504-6.486-6.398-13.279-9.196-1.215-18.222-2.556-24.877-5.89-3.76.57-3.597 5.047-7.412 5.55-1.866-1.209 1.051-3.979 2.228-4.635-4.215-2.157-6.979 3.65-8.342 6.885-5.703 4.686-12.819 7.986-19.863 11.336 1.401-3.18 11.604-4.127 12.512-10.329-4.647-1.664-16.584-1.007-14.937-9.611 3.07-3.043 10.115-2.058 10.006-8.265-5.271 2.737-12.015 1.8-12.469-2.617 4.614-3.19 9.031 1.15 12.49-1.915-1.275-3.63-7.974-2.748-8.084-7.373 9.88-4.062 20.86-12.759 30.559-6.694 10.591-1.166 22.37 1.324 30.997 3.645 1.187 1.09-.756 4.79 2.14 4.428 2.249-1.708-.022-4.433.366-6.491 1.861 1.286 5.036-1.188 6.875-2.283 2.961.613-4.734 2.567-5.145 4.784h.022zm77.319 57.664c3.262-1.374 10.416-1.122 10.438 2.063-1.965-.443-2.03 1.013-3.722.827-.93 1.932-3.284 7.767-.711 8.456 1.428-4.143 2.178-8.998 7.329-9.431.301 2.562 1.018 4.784 3.366 5.666-.235-2.759 2.463-2.628 2.917-4.686-6.524-.591-8.774-4.729-12.331-7.805-2.639.941-7.483 3.64-7.286 4.91zm30.05-3.443l-2.906.148c-1.008 2.539 3.054 2.342 2.906-.148zm-15.55 15.665c3.826-2.271 12.058-4.138 12.682-7.105-3.837 2.781-9.442 3.744-12.682 7.105z" fill="#00783A"/><path fill-rule="evenodd" clip-rule="evenodd" d="M209.364 107.446c3.558 3.076 5.807 7.209 12.332 7.806-.455 2.058-3.153 1.926-2.918 4.685-2.353-.881-3.07-3.104-3.366-5.665-5.145.432-5.901 5.282-7.329 9.431-2.573-.684-.219-6.525.711-8.457 1.692.186 1.752-1.27 3.722-.826-.021-3.191-7.181-3.443-10.438-2.064-.202-1.27 4.642-3.968 7.286-4.91z" fill="#00783A"/><path d="M265.715 153.262s.676 2.931-1.565 6.203c0 0 3.661-.113 5.422 2.312 0 0-.587-3.524 1.928-6.203 0 0-3.437.62-5.785-2.312z" fill="#fff" opacity=".1"/><path d="M80.224 198.495s.96 4.166-2.224 8.817c0 0 5.203-.161 7.705 3.286 0 0-.834-5.01 2.74-8.817 0 0-4.884.882-8.22-3.286m174.524-.341s.675 2.931-1.565 6.203c0 0 3.661-.112 5.421 2.312 0 0-.587-3.524 1.929-6.203 0 0-3.438.621-5.785-2.312z" fill="#fff"/><path opacity=".3" d="M260.383 258.078c0 3.046-38.137 5.514-85.181 5.514s-85.18-2.468-85.18-5.514c0-3.045 38.136-5.514 85.18-5.514 47.044 0 85.181 2.469 85.181 5.514z" fill="#000072"/><path d="M246.897 251.182c-3.38 3.954-8.339 6.179-13.518 6.179H117.013c-5.179 0-10.138-2.225-13.518-6.179a23.68 23.68 0 01-4.177-7.113c-.004 0-.004 0-.004-.003-2.921-7.818-1.432-16.208 3.228-19.226 7.825-5.074 13.859 1.126 13.859 1.126a15.665 15.665 0 012.584-4.13c3.811-4.442 9.153-6.133 9.153-6.133-2.904-16.804 3.579-32.03 3.579-32.03s15.973 12.18 43.479 12.18 43.479-12.18 43.479-12.18 6.483 15.226 3.579 32.03c0 0 8.552 2.709 11.737 10.263 0 0 6.034-6.2 13.859-1.126 6.145 3.983 6.775 17.306-.953 26.342z" fill="#B11313"/><path opacity=".3" d="M121.042 241.458c1.078-10.53-4.64-15.074-4.64-15.074a15.69 15.69 0 012.584-4.13c8.869 10.702 2.056 19.204 2.056 19.204zm108.343.001c-1.078-10.53 4.639-15.074 4.639-15.074a15.658 15.658 0 00-2.584-4.13c-8.868 10.702-2.055 19.204-2.055 19.204z" fill="#000072"/><path opacity=".3" d="M230.289 250.298a7.156 7.156 0 00-2.532-.186c-1.209.134-3.29.342-6.342.573-4.594.347-8.605-3.135-8.919-7.772-.134-1.992.161-3.539.268-4.017-1.2 5.173-3.414 9.94-4.765 12.554-6.856.288-15.539.523-26.277.591-.58-20.934 11.474-40.563 11.474-40.563-18.468 14.906-35.97 0-35.97 0 12.186 21.824 11.551 39.654 11.551 39.654l2.053.921c-11.727-.05-21.105-.296-28.408-.603-1.351-2.614-3.566-7.381-4.765-12.554.111.497.426 2.151.249 4.259-.381 4.537-4.396 7.871-8.897 7.53a186.175 186.175 0 01-6.345-.573 7.156 7.156 0 00-2.532.186c-13.24 3.326-20.577-5.519-20.814-5.812a23.695 23.695 0 004.177 7.113c3.381 3.955 8.34 6.179 13.518 6.179h116.395c5.178 0 10.137-2.224 13.518-6.179a23.68 23.68 0 004.176-7.113c-.236.293-7.573 9.138-20.813 5.812z" fill="#000072"/><path opacity=".3" d="M137.66 238.896a3.95 3.95 0 00-.037-.156l.037.156zm75.098 0l.037-.156-.037.156z" fill="#000072"/><path d="M175.185 256.562h58.198c4.882 0 9.477-2.098 12.606-5.757 4.043-4.726 6.036-11.272 5.203-17.082-.488-3.401-1.942-6.114-3.989-7.441-6.92-4.489-12.131.732-12.349.957a1.199 1.199 0 01-1.97-.376c-2.934-6.96-10.908-9.554-10.988-9.58a1.215 1.215 0 01-.827-1.369c2.309-13.355-1.506-25.849-2.966-29.943-4.374 2.885-19.423 11.518-42.903 11.518-23.481 0-38.53-8.633-42.903-11.518-1.461 4.094-5.276 16.588-2.967 29.943a1.216 1.216 0 01-.826 1.369c-.079.026-8.067 2.647-10.989 9.58a1.2 1.2 0 01-1.97.376c-.218-.221-5.473-5.418-12.349-.957-2.047 1.327-3.5 4.04-3.989 7.441-.833 5.81 1.16 12.356 5.203 17.082 3.129 3.659 7.724 5.757 12.606 5.757h58.169zm58.198 2.433H117.016c-5.584 0-10.844-2.406-14.431-6.6-4.486-5.245-6.694-12.533-5.764-19.02.597-4.16 2.398-7.406 5.071-9.14 6.362-4.126 11.731-1.431 14.09.247 2.992-5.528 8.544-8.239 10.81-9.155-2.524-16.554 3.555-31.094 3.82-31.716.146-.344.441-.6.799-.696.359-.096.74-.02 1.036.206.156.118 16.018 11.935 42.753 11.935 26.734 0 42.596-11.817 42.753-11.936.296-.225.678-.3 1.036-.204.357.096.652.352.798.695.265.622 6.344 15.162 3.82 31.716 2.266.916 7.818 3.627 10.81 9.155 2.359-1.678 7.727-4.374 14.09-.247 2.674 1.734 4.474 4.98 5.071 9.14.931 6.487-1.278 13.775-5.763 19.02-3.588 4.194-8.848 6.6-14.432 6.6" fill="#000072"/><path d="M117.105 225.394c.132.091.194.141.285.209.086.065.156.127.235.191.156.127.289.262.431.394.145.131.265.275.395.414.131.138.255.281.37.428.481.582.884 1.208 1.245 1.854.721 1.293 1.201 2.687 1.534 4.091.325 1.41.446 2.841.446 4.254.002.707-.076 1.411-.124 2.107a34.065 34.065 0 01-.361 2.064.238.238 0 01-.467-.009l-.003-.017c-.118-.683-.192-1.356-.281-2.023l-.173-.992c-.063-.329-.086-.66-.173-.982-.162-.645-.249-1.297-.453-1.919-.089-.314-.159-.632-.256-.94l-.311-.915a19.718 19.718 0 00-1.584-3.432c-.164-.261-.318-.532-.497-.78l-.258-.381-.277-.361c-.175-.249-.379-.469-.57-.694-.098-.106-.195-.222-.295-.317-.047-.049-.098-.107-.143-.149-.04-.04-.106-.102-.11-.111l-.261-.527a1.15 1.15 0 01.511-1.536 1.13 1.13 0 011.145.079zm117.561 1.984c-.004.01-.07.072-.11.111-.045.042-.096.1-.144.149-.099.095-.196.211-.295.318-.19.224-.394.444-.569.693l-.277.361-.258.381c-.179.248-.333.519-.497.78a19.645 19.645 0 00-1.584 3.432l-.311.915c-.097.309-.167.626-.256.94-.204.623-.291 1.274-.453 1.919-.087.322-.11.654-.174.982l-.172.993c-.089.666-.163 1.34-.281 2.022l-.003.017a.237.237 0 01-.467.009 34.866 34.866 0 01-.362-2.064c-.047-.696-.125-1.4-.123-2.107 0-1.413.12-2.844.445-4.254.334-1.403.813-2.798 1.535-4.091.36-.646.764-1.272 1.245-1.853a5.74 5.74 0 01.37-.429c.13-.139.25-.283.395-.414.142-.132.274-.267.431-.394.079-.064.149-.126.235-.191.091-.068.153-.118.285-.209a1.129 1.129 0 011.577.302c.24.354.255.795.079 1.154l-.261.528zm-105.325-11.4l.098.972.123 1.087c.043.37.101.742.132 1.132.036.389.057.792.037 1.228v.002a.123.123 0 01-.194.095 4.863 4.863 0 01-.922-.855 7.485 7.485 0 01-.707-1.002 9.618 9.618 0 01-.57-1.101c-.078-.193-.16-.387-.223-.592a4.765 4.765 0 01-.093-.313 3.644 3.644 0 01-.075-.365 1.216 1.216 0 011.002-1.393 1.208 1.208 0 011.381 1.011l.008.064.003.03zm94.136.289a3.089 3.089 0 01-.075.364 4.59 4.59 0 01-.093.313c-.063.205-.144.399-.223.593a9.604 9.604 0 01-.57 1.1c-.215.35-.436.691-.706 1.003a4.933 4.933 0 01-.923.855.124.124 0 01-.194-.096v-.002c-.02-.435.001-.838.037-1.227.032-.391.089-.762.132-1.133l.123-1.087.098-.972.003-.026a1.21 1.21 0 011.322-1.087 1.214 1.214 0 011.069 1.402z" fill="#000072"/><path d="M135.19 228.035s-5.519-4.318-7.047-11.912c0 0-3.175-1.62-5.37 2.762 0 0 2.532 13.374 14.85 19.855 0 0-1.78-6.885-2.433-10.705" fill="#0096F2"/><path d="M124.05 219.058c.497 2.043 3.174 11.369 11.694 17.143-.539-2.207-1.253-5.257-1.663-7.515-1.278-1.118-5.438-5.161-6.967-11.625-.694-.121-1.943.02-3.064 1.997zm13.574 20.899c-.191 0-.382-.046-.558-.138-12.689-6.677-15.368-20.137-15.476-20.706a1.227 1.227 0 01.108-.777c1.371-2.737 3.163-3.513 4.425-3.681 1.397-.188 2.449.323 2.564.382.33.168.565.479.638.844 1.415 7.032 6.555 11.153 6.606 11.194.236.186.397.456.448.753.637 3.725 2.394 10.537 2.411 10.605.121.465-.042.959-.415 1.259a1.2 1.2 0 01-.751.265" fill="#000072"/><path d="M215.238 228.035s5.519-4.318 7.047-11.912c0 0 3.175-1.62 5.369 2.762 0 0-2.531 13.374-14.849 19.855 0 0 1.78-6.885 2.433-10.705" fill="#0096F2"/><path d="M216.346 228.685c-.41 2.259-1.124 5.308-1.664 7.516 8.521-5.775 11.198-15.099 11.695-17.143-.679-1.201-1.482-1.871-2.39-1.992a2.36 2.36 0 00-.678.01c-1.532 6.456-5.686 10.493-6.963 11.609zm-3.543 11.271a1.2 1.2 0 01-.751-.265 1.22 1.22 0 01-.415-1.258c.017-.069 1.774-6.88 2.411-10.605.051-.299.211-.567.448-.753.051-.041 5.191-4.162 6.606-11.195a1.21 1.21 0 01.638-.843c.115-.059 1.167-.571 2.564-.383 1.262.169 3.054.945 4.425 3.681.12.24.158.513.108.777-.108.57-2.787 14.029-15.476 20.706a1.203 1.203 0 01-.558.138" fill="#000072"/><path d="M151.82 196.963s2.073 5.926 1.476 14.573l6.828 5.994s1.784-10.447-1.255-19.123l-7.049-1.444z" fill="#0096F2"/><path d="M154.533 211.012l4.669 4.099c.316-3.334.586-9.869-1.257-15.652l-4.434-.909c.573 2.406 1.338 6.832 1.022 12.462zm5.587 7.734c-.286 0-.568-.103-.791-.299l-6.828-5.994a1.222 1.222 0 01-.411-1.002c.57-8.263-1.391-14.028-1.411-14.086a1.227 1.227 0 01.229-1.202 1.208 1.208 0 011.149-.393l7.048 1.444c.416.085.756.384.897.787 3.108 8.874 1.381 19.296 1.306 19.735a1.211 1.211 0 01-1.188 1.01" fill="#000072"/><path d="M198.607 196.963s-2.072 5.926-1.476 14.573l-6.827 5.994s-1.785-10.447 1.254-19.123l7.049-1.444z" fill="#0096F2"/><path d="M192.479 199.459c-1.846 5.793-1.575 12.323-1.258 15.653l4.67-4.1c-.315-5.63.449-10.056 1.022-12.462l-4.434.909zm-2.175 19.287a1.213 1.213 0 01-1.188-1.01c-.075-.439-1.802-10.861 1.306-19.735a1.21 1.21 0 01.897-.787l7.049-1.444c.425-.089.864.063 1.149.394.285.33.372.789.228 1.202-.032.091-1.978 5.847-1.411 14.085.027.381-.126.752-.411 1.002l-6.828 5.994a1.196 1.196 0 01-.791.299" fill="#000072"/><path d="M168.403 253.979c-1.719 8.512-11.512 12.407-18.394 7.19-5.388-4.081-11.303-13.415-14.958-33.883a176.04 176.04 0 01-.985-6.2l2.327-2.225 15.424-14.758s15.194 23.734 16.878 41.928v.004c.264 2.817.201 5.502-.292 7.944z" fill="#B11313"/><path opacity=".3" d="M168.404 253.979c-1.719 8.512-11.512 12.407-18.394 7.19-5.388-4.081-11.303-13.415-14.958-33.883-5.144-3.126-6.911-11.165-6.911-11.165-2.219-10.674.341-20.513.341-20.513-.487 12.992 4.624 19.19 6.732 21.179.588.555.998 1.27 1.177 2.061l.003.013c3.766 16.815 10.075 37.3 19.229 38.767 8.837 1.414 12.645-10.2 13.073-11.593.264 2.817.201 5.502-.292 7.944z" fill="#000072"/><path d="M153.139 202.968c1.757 1.93 3.145 4.082 4.404 6.306.625 1.115 1.195 2.258 1.762 3.403a174.02 174.02 0 011.661 3.456c2.165 4.632 4.136 9.369 5.773 14.251 1.638 4.875 2.958 9.913 3.439 15.157.231 2.618.246 5.297-.195 7.979a13.113 13.113 0 01-.45 2.046c-.195.685-.471 1.346-.77 1.995a13.577 13.577 0 01-2.448 3.496c-2.004 2.03-4.652 3.399-7.464 3.802-1.402.221-2.842.173-4.24-.077a13.177 13.177 0 01-3.978-1.47c-.603-.36-1.21-.756-1.734-1.192l-.786-.65c-.265-.214-.493-.462-.741-.692-.239-.237-.494-.462-.72-.71l-.672-.747c-.464-.487-.849-1.029-1.265-1.548-1.61-2.118-2.894-4.421-4.021-6.769-1.145-2.346-2.02-4.785-2.868-7.224-.787-2.457-1.504-4.931-2.094-7.43-.291-1.251-.604-2.496-.842-3.755-.245-1.258-.539-2.508-.717-3.776-.394-2.53-.579-5.096-.362-7.697a.264.264 0 01.508-.082l.003.008c.501 1.209.881 2.429 1.208 3.656.322 1.227.655 2.447.908 3.682.242 1.237.525 2.462.792 3.692.254 1.233.58 2.445.885 3.663.616 2.435 1.353 4.829 2.152 7.194.857 2.338 1.738 4.673 2.857 6.87 1.097 2.206 2.348 4.322 3.818 6.229.38.463.732.956 1.147 1.381l.602.659c.201.219.425.409.636.616.217.197.418.418.648.597l.679.552c.45.37.909.657 1.389.943a10.3 10.3 0 003.093 1.115c1.08.181 2.192.215 3.278.031 2.179-.325 4.229-1.418 5.769-2.992a10.528 10.528 0 001.899-2.697c.23-.503.45-1.014.601-1.551a10.2 10.2 0 00.367-1.67c.391-2.333.395-4.776.184-7.213-.214-2.44-.643-4.882-1.199-7.304-.552-2.423-1.243-4.826-2.012-7.206-1.54-4.763-3.423-9.434-5.504-14.014a171.26 171.26 0 00-1.599-3.419c-.543-1.136-1.115-2.257-1.644-3.4-1.07-2.281-2.077-4.6-2.872-7.051l-.002-.008a.441.441 0 01.279-.556.432.432 0 01.458.121z" fill="#000072"/><path d="M138.427 242.674c-.325 0-.649-.131-.886-.391a1.222 1.222 0 01.067-1.717c.447-.418 11.141-10.233 27.514-11.468a1.207 1.207 0 011.292 1.122c.05.67-.449 1.254-1.113 1.304-15.504 1.169-25.953 10.732-26.057 10.828a1.194 1.194 0 01-.817.322z" fill="#000072"/><path d="M182.02 253.979c1.718 8.512 11.512 12.407 18.394 7.19 5.387-4.081 11.303-13.415 14.958-33.883.348-1.961.678-4.028.984-6.2l-2.326-2.225-15.424-14.758s-15.195 23.734-16.878 41.928v.004c-.264 2.817-.202 5.502.292 7.944z" fill="#B11313"/><path opacity=".3" d="M182.03 253.979c1.718 8.513 11.512 12.408 18.394 7.19 5.387-4.081 11.303-13.415 14.958-33.882 5.144-3.127 6.91-11.166 6.91-11.166 2.219-10.674-.34-20.513-.34-20.513.487 12.993-4.624 19.19-6.733 21.18a4.063 4.063 0 00-1.176 2.06l-.003.014c-3.767 16.815-10.076 37.3-19.229 38.767-8.837 1.414-12.645-10.201-13.073-11.594-.264 2.818-.202 5.502.292 7.944z" fill="#000072"/><path d="M198.025 203.411c-.795 2.451-1.802 4.77-2.872 7.051-.529 1.143-1.101 2.264-1.644 3.4a171.26 171.26 0 00-1.599 3.419c-2.081 4.58-3.964 9.251-5.505 14.014-.768 2.38-1.459 4.783-2.011 7.207-.556 2.421-.986 4.863-1.199 7.303-.211 2.437-.207 4.88.184 7.213.088.598.196 1.14.366 1.67.152.537.372 1.048.602 1.551a10.549 10.549 0 001.898 2.697c1.54 1.574 3.591 2.667 5.77 2.992 1.086.184 2.198.149 3.278-.031a10.259 10.259 0 003.092-1.116c.48-.285.94-.572 1.39-.942l.679-.552c.229-.179.431-.4.648-.597.211-.207.435-.397.636-.616l.602-.659c.415-.425.767-.918 1.147-1.381 1.47-1.907 2.721-4.023 3.818-6.229 1.119-2.197 2-4.532 2.857-6.87.799-2.365 1.536-4.759 2.152-7.194.305-1.218.631-2.43.885-3.663.267-1.23.55-2.455.792-3.692.253-1.235.586-2.455.908-3.682.327-1.227.707-2.447 1.208-3.656l.003-.007a.264.264 0 01.508.081c.217 2.601.032 5.167-.362 7.697-.178 1.268-.472 2.518-.717 3.776-.238 1.259-.551 2.504-.842 3.755-.59 2.499-1.307 4.973-2.094 7.43-.848 2.439-1.723 4.878-2.869 7.224-1.127 2.348-2.41 4.651-4.02 6.769-.416.519-.801 1.061-1.265 1.548l-.673.747c-.225.248-.48.473-.719.71-.248.23-.476.478-.741.692l-.786.65c-.524.436-1.132.832-1.735 1.192a13.161 13.161 0 01-3.977 1.47c-1.398.25-2.838.298-4.24.077-2.812-.403-5.46-1.772-7.464-3.802a13.577 13.577 0 01-2.448-3.496c-.299-.649-.575-1.31-.77-1.995a13.113 13.113 0 01-.45-2.046c-.441-2.682-.426-5.361-.195-7.979.481-5.244 1.801-10.282 3.439-15.157 1.637-4.881 3.608-9.619 5.773-14.251.54-1.159 1.095-2.31 1.661-3.456.567-1.145 1.137-2.288 1.762-3.403 1.259-2.224 2.647-4.376 4.403-6.306a.434.434 0 01.618-.027.441.441 0 01.12.462l-.002.008z" fill="#000072"/><path d="M212.003 242.675c-.293 0-.586-.107-.818-.323-.104-.096-10.553-9.659-26.057-10.828a1.214 1.214 0 01-1.113-1.304c.05-.67.629-1.176 1.292-1.123 16.373 1.235 27.067 11.051 27.514 11.468.489.456.519 1.226.067 1.719-.238.26-.561.391-.885.391z" fill="#000072"/><path d="M175.23 192.352c31.531 0 44.051-13.898 44.051-13.898s.525 1.197.781 2.898c.423 2.816-.762 5.641-3.019 7.352-4.961 3.76-17.594 10.926-41.829 10.926s-36.868-7.166-41.829-10.926c-2.257-1.711-3.442-4.536-3.019-7.352.256-1.701.781-2.898.781-2.898s12.52 13.898 44.051 13.898" fill="#751313"/><path opacity=".3" d="M219.945 180.7a7.858 7.858 0 01-2.904 4.495c-4.961 3.76-17.594 10.926-41.829 10.926s-36.868-7.166-41.829-10.926a7.858 7.858 0 01-2.904-4.495c-.042.207-.081.425-.115.652-.423 2.816.762 5.641 3.019 7.352 4.961 3.76 17.594 10.926 41.829 10.926s36.868-7.166 41.829-10.926c2.257-1.711 3.442-4.536 3.019-7.352a12.867 12.867 0 00-.115-.652z" fill="#000072"/><path d="M175.215 200.847c-24.202 0-37.049-6.999-42.553-11.171-2.639-2-3.975-5.26-3.487-8.506.277-1.841.847-3.153.871-3.208.165-.376.507-.643.91-.708.402-.067.81.078 1.085.382.12.134 12.619 13.5 43.158 13.5v2.433c-26.083 0-39.314-9.284-43.477-12.899-.06.267-.116.557-.163.865-.354 2.36.623 4.735 2.552 6.196 5.263 3.99 17.602 10.683 41.104 10.683s35.842-6.693 41.105-10.683c1.929-1.461 2.906-3.836 2.551-6.196a12.107 12.107 0 00-.162-.865c-4.163 3.615-17.394 12.899-43.477 12.899v-2.433c30.643 0 43.036-13.365 43.158-13.5a1.2 1.2 0 011.995.326c.024.055.593 1.367.87 3.208.488 3.246-.848 6.506-3.486 8.506-5.504 4.172-18.351 11.171-42.554 11.171z" fill="#000072"/><path d="M79.9 100.58s.677 2.931-1.564 6.204c0 0 3.66-.113 5.422 2.312 0 0-.587-3.525 1.928-6.204 0 0-3.438.621-5.785-2.312z" fill="#fff" opacity=".3"/><path d="M131.174 188.74l19.441 44.652m48.354 0l19.853-44.653" stroke="#000072" stroke-miterlimit="10"/><path fill-rule="evenodd" clip-rule="evenodd" d="M173.788 206.975c-.008.107-.073.204-.116.31-.042.102-.08.212-.116.319-.094.28-.182.557-.174.92.321.042.725.01 1.014-.031.158.071.26.181.406.26-.028-.135.104-.161.217-.2-.05.059-.128.099-.101.21.066.031.076-.05.13-.06a.197.197 0 00.246 0c.056.009.041.066.102.07.086-.077-.037-.162-.073-.22.108.04.23.068.218.19.117-.049.259-.167.376-.25.302.044.688.065 1.043.04-.012-.608-.226-1.076-.434-1.548.057-.005.057.047.072.07.216.321.407.689.565 1.079.023.056.061.134.087.21.022.066.069.182.058.219-.025.082-.221.11-.261.18-.121-.098-.468-.07-.797-.08-.093-.002-.218-.021-.275-.01-.126.025-.181.152-.246.22.178.009.319-.111.478-.12.1-.005.248.047.376.07.374.069.791.126 1.13.2.021-.803-.278-1.473-.68-2.018.399.38.668.825.869 1.349.034.09.064.176.087.269.031.131.033.293.13.39-.12.09-.265.164-.391.25-.356-.147-1.044-.358-1.622-.32a.782.782 0 00-.363.12c.177.049.3.053.536.05.059-.001.144-.018.189-.01.05.009.131.08.202.13.419.288.793.5 1.29.729.155.072.242.145.42.05.029.949-.336 1.648-.783 2.288-.052.075-.085.162-.173.22.335-.546.594-1.197.594-1.958 0-.08.022-.18 0-.25-.032-.1-.26-.206-.392-.29a16.325 16.325 0 00-1.086-.629c-.081-.044-.15-.103-.217-.12-.071-.018-.182-.021-.261-.03-.099-.011-.194-.014-.275-.02.16.119.414.266.637.38.041.025.083-.009.131-.01.052 1.113-.067 2.204-.522 3.017-.109.194-.229.385-.42.53.618-.77.664-2.09.536-3.248.131-.078.074-.143-.043-.239-.129-.105-.358-.259-.507-.31-.011.052.015.103.043.15.028.047.091.087.101.13.022.089-.031.285-.058.389a3.481 3.481 0 01-.449.979c-.06-.005-.018-.08-.058-.099-.064.002-.025.075-.058.099-.199-.234-.369-.623-.463-.979-.034-.127-.086-.28-.058-.389.022-.087.158-.166.145-.27-.133.021-.256.112-.362.19a1.71 1.71 0 00-.29.249c.009.044.071.052.087.09-.095 1.172-.092 2.49.55 3.248-.067-.007-.099-.066-.13-.1-.598-.66-.759-1.677-.826-2.728-.015-.232-.03-.459.015-.689.012-.049.087.023.13-.01.229-.119.435-.254.652-.38-.189.02-.395.014-.565.06-.148.04-.309.151-.449.23-.425.239-.873.498-1.231.769-.073.892.223 1.61.579 2.238-.514-.691-.991-1.46-.941-2.508.196.128.494-.08.651-.16a10.01 10.01 0 001.246-.749c.246.025.534.005.739-.03-.256-.225-.912-.112-1.304-.03a2.617 2.617 0 00-.666.22c-.15-.07-.266-.163-.406-.24.103-.178.125-.476.203-.679.192-.496.49-.936.855-1.339-.01.076-.087.143-.131.21a3.343 3.343 0 00-.536 1.798c.335-.052.735-.117 1.13-.19.129-.024.263-.072.362-.07.161.004.313.119.493.12a.552.552 0 00-.217-.22c-.299.024-.632-.013-.898.02a.503.503 0 00-.102.03c.004-.001-.086.04-.072.04-.061 0-.208-.144-.275-.16.139-.613.453-1.106.753-1.608zm1.429-6.128v17.252z" fill="#000072"/><path d="M175.217 200.847v17.252m-5.339-17.37s.94 14.133-.437 16.635m-3.789-16.906s2.12 6.539-.943 15.372m15.378-14.983s-.983 12.523.438 16.786m4.576-17.175s-2.247 12.417 1.09 15.372" stroke="#000072" stroke-miterlimit="10"/><path d="M161.262 202.941s2.116-2.038 4.896 0c0 0 1.449-2.023 3.858.278 0 0 1.314-2.519 5.182-.278 0 0 1.632-2.106 4.561 0 0 0 2.3-2.338 4.995-.116 0 0 2.403-2.639 4.484-.282m-14.331 3.635a5.633 5.633 0 00-.226-.153c-2.634-1.703-4.546.201-4.546.201-1.954-2.047-3.766 0-3.766 0-3.037-3.576-4.678 0-4.678 0" stroke="#000072" stroke-miterlimit="10"/><path d="M174.832 206.217s2.401-1.943 4.927 0c0 0 2.455-2.405 4.603.107 0 0 3.19-2.476 4.38-.05m-27.051 5.923s1.949-3.239 4.001.275c0 0 3.678-2.564 4.461 1.017 0 0 3.046-1.563 5.175 1.009 0 0 2.256-2.662 4.868-.632 0 0 1.745-4.071 4.697-.93 0 0 1.82-3.395 3.848-1.458" stroke="#000072" stroke-miterlimit="10"/><path d="M161.492 214.134s2.538-2.597 3.648.364c0 0 3.656-1.667 4.677 1.332 0 0 3.777-1.999 5.35 1.199 0 0 2.235-2.125 4.922-.681 0 0 2.47-3.748 5.328-1.536 0 0 2.034-3.505 3.252-1.323" stroke="#000072" stroke-miterlimit="10"/><path d="M139.244 242.352s11.249-11.931 25.468-10.78l3.233 10.017s-3.494 14.872-25.519 9.861l-3.182-9.098z" fill="#000072"/><path d="M139.244 242.352s11.249-11.931 25.468-10.78l3.233 10.017s-3.494 14.872-25.519 9.861l-3.182-9.098z" stroke="#000072" stroke-miterlimit="10"/><path d="M181.967 244.051l3.312-14.211 15.609 4.789 9.301 5.327v4.095l-2.184 7.399s-15.627 5.191-26.038-7.399z" fill="#000072"/><path d="M181.967 244.051l3.312-14.211 15.609 4.789 9.301 5.327v4.095l-2.184 7.399s-15.627 5.191-26.038-7.399zm-78.994-18.926l12.016 31.437m-15.137-27.468s2.076 14.552 11.14 27.231m-3.14-32.41s9.385 16.077 10.835 32.9m-4.814-31.69s5.692 11.449 8.902 31.437" stroke="#000072" stroke-miterlimit="10"/><path d="M98.578 235.884s.024-3.22 2.292-1.972c0 0 .845-5.63 4.553-2.055 0 0 .14-5.717 5.322-2.289 0 0 1.478-4.196 4.582-.474 0 0 1.54-.859 2.53 1.077" stroke="#000072" stroke-miterlimit="10"/><path d="M100.215 231.061s.795-4.164 3.962-2.784c0 0 .628-3.423 4.804-2.285 0 0 .615-2.239 5.57.623M99.02 237.597s.174-3.227 2.594-.982c0 0 .762-5.586 4.989-1.986 0 0 .113-5.47 5.032-2.379 0 0 1.809-3.054 4.963-.393 0 0 .563-1.59 2.137 0" stroke="#000072" stroke-miterlimit="10"/><path d="M99.02 240.366s.981-3.103 3.668-.409c0 0 1.644-5.067 5.161-1.638 0 0 1.417-6.763 5.731-2.118 0 0 .671-4.416 4.103-1.149 0 0 .26-2.711 2.069-.534m-19.9 8.191s.913-2.556 3.575-.721c0 0 2.894-4.034 5.551-1.145 0 0 2.85-4.342 5.57-1.042 0 0 1.415-4.074 4.212-1.238 0 0 1.036-1.519 1.874-.205m-19.816 7.359s1.609-2.784 3.667-1.121c0 0 1.802-3.173 5.73-.53 0 0 1.87-4.295 5.716-1.051 0 0 1.391-3.655 3.826-.341 0 0 .009-3.547 1.714-1.831m-19.473 8.385v-.894s1.078-3.256 3.659-1.132c0 0 2.665-3.081 5.485-.704 0 0 2.913-3.848 5.549-.78 0 0 1.587-3.364 3.945-.013m-16.632 4.614s.1-1.733 2.657-1.092c0 0 2.74-2.095 5.465-.142 0 0 1.923-3.441 5.186-.833 0 0 2.259-2.681 3.805-.41m-15.691 4.64s.988-1.515 2.795-.44c0 0 2.346-2.297 4.894-.386 0 0 1.772-2.709 4.753-.76 0 0 1.89-2.47 3.777-.576m-14.26 3.699s.31-1.605 2.005-.071c0 0 1.981-1.283 4.485.071 0 0 2.731-1.728 4.45-.368 0 0 2.236-1.695 3.722-.077m-11.803 1.566s1.317-1.395 4.305.276c0 0 1.64-1.011 3.143-.654.214.051.426.129.63.243m.227.42s1.519-1.337 4.1-.416" stroke="#000072" stroke-miterlimit="10"/><path d="M121.47 240.374c-.454 1.04 1.306 17.398 1.306 17.398h21.942l-.467-1.21-5.005-9.633-3.133-9.048c-7.098-1.016-14.067-17.789-14.067-17.789l-4.941 5.302 1.22 2.883 2.313 5.394.832 6.703z" fill="#000072"/><path d="M246.552 224.364l-10.741 32.198m13.596-28.268s-1.91 20.547-10.874 28.761m3.881-32.887s-7.274 17.628-10.728 32.59m4.685-31.044s-5.294 10.017-8.041 32.907" stroke="#000072" stroke-miterlimit="10"/><path d="M251.191 233.723s-.579-2.849-2.415-.931c0 0-.767-5.091-4.386-1.948 0 0-1.022-4.339-4.199-1.004 0 0-2.473-4.147-5.553 0 0 0-.636-1.05-2.126.331m18.865 6.434s-.68-2.795-3.184-.721c0 0-1.456-3.502-5.065-1.255 0 0-.847-3.547-4.598-1.237 0 0-1.109-2.7-4.845-.782 0 0-.874-1.707-2.439.151m20.135 7.195s-1.43-3.009-3.873-1.06c0 0-2.283-3.263-5.582-.657 0 0-1.248-3.181-4.42-1.01 0 0-1.623-3.507-4.991-1.028 0 0-.617-1.849-3.066-.317m21.339 6.79s-.843-2.975-4.177-.507c0 0-2.272-3.82-5.665-.992 0 0-1.467-3.892-4.577-.712 0 0-.98-3.167-4.683-.761 0 0-.542-2.477-2.122-.351-1.58 2.125-.418-.04-.418-.04m20.745 6.316s-1.207-3.322-4.181-.713c0 0-1.86-2.713-5.681-1 0 0-2.31-2.798-4.988-.001 0 0-1.824-2.845-4.218-.475 0 0-.933-4.668-3.184-.157m20.426 4.65s-.073-3.035-3.282-.594c0 0-2.114-2.977-5.836-.178 0 0-2.012-3.063-4.734.174 0 0-1.854-2.969-4.154-.095 0 0-.072-4.949-3.176-1.069m19.67 4.331s-.477-1.656-3.04-.377c0 0-2.784-2.109-5.535-.054 0 0-1.588-2.253-4.494-.235 0 0-2.392-2.103-4.036-.087 0 0 .145-3.764-3.343-.874m18.603 3.637s-.394-1.869-2.522 0c0 0-2.417-1.639-5.135.341 0 0-2.674-1.71-4.395 0 0 0-1.843-2.522-3.794 0 0 0-.597-3.332-2.481-.586m16.698 1.207s-.883-.815-1.768.365c0 0-3.534-1.047-4.944 1.056 0 0-1.518-1.669-4.236 0 0 0-1.329-2.464-3.32 0 0 0-1.098-3.276-3.155 0" stroke="#000072" stroke-miterlimit="10"/><path d="M215.041 237.617l7.052-6.857 5.547-9.493.687-2.107 4.656 5.205.365 2.585-2.524 2.891-1.377 3.551-.587 4.225v2.269l-.048 1.514s-2.409 11.454-1.172 15.961l-21.478.538-.701-1.337 3.508-6.875 3.851-9.121 2.221-2.949z" fill="#000072"/><path d="M211.1 193.152s-17.189 33.653-19.12 43.049m13.635-40.465s-16.803 33.933-15.317 36.804m31.36-38.658s-12.775 35.106-18.717 43.309" stroke="#000072" stroke-miterlimit="10"/><path d="M198.609 200.847s3.888-4.151 4.849-.686c0 0 2.61-3.878 4.736-1.222 0 0 5.065-4.114 5.876.489 0 0 4.605-3.661 4.989 1.419 0 0 1.672-.477 1.631 3.79 0 0 1.502 3.315 1.067 4.603" stroke="#000072" stroke-miterlimit="10"/><path d="M205.016 196.962s3.044-2.774 4.781-1.226c0 0 4.096-4.188 6.231-.704 0 0 4.05-.722 4.122 2.93 0 0 1.64 2.076 1.512 2.885 0 0-1.877 12.726-5.467 20.288 0 0-4.761 16.479-9.609 17.798" stroke="#000072" stroke-miterlimit="10"/><path d="M198.023 203.403s2.434-3.065 3.877 0c0 0 3.569-3.471 3.713 0 0 0 5.634-2.748 6.377.7 0 0 4.159-2.991 5 2.123 0 0 3.998-1.509 2.73 3.695 0 0 2.219-.586 1.8 2.687" stroke="#000072" stroke-miterlimit="10"/><path d="M195.832 207.234s3.536-3.333 3.982.59c0 0 3.424-3.364 3.611.888 0 0 6.118-3.169 5.979 1.209 0 0 4.274-1.374 5.041 2.746 0 0 3.692-1.242 4.076 2.235 0 0 2.723-.171 2.467 2.048m-27.037-5.472s2.725-4.59 4.381-.027c0 0 2.204-2.006 3.205.836 0 0 5.36-1.804 5.829 2.211 0 0 3.627-2.299 5.436 1.332 0 0 4.206-.701 4.818 1.803 0 0 1.918-.602 2.606 1.526m-27.347-5.021s2.522-1.33 3.273 1.692c0 0 2.612-2.305 3.66.46 0 0 4.276-1.65 5.647 1.809 0 0 4.632-1.772 6.138 1.491 0 0 3.141-.843 4.855 1.307 0 0 2.084-.789 2.368 1.357m-27.746-4.566s3.496-2.621 3.49 1.775c0 0 3.037-2.168 3.461.539 0 0 4.727-1.383 5.895 2.252 0 0 3.936-2.893 5.879 1.523 0 0 4.05-2.187 4.968 1.418m-24.984-3.298s2.702-2.94 3.604.357c0 0 2.487-2.123 3.405.891 0 0 4.35-1.217 5.82 2.05 0 0 3.905-1.691 5.806 1.667 0 0 3.376-2.171 5.12 1.135m-24.968-3.325s2.769-1.729 3.64.523c0 0 2.425-1.691 3.359.822 0 0 4.756-.988 5.494 1.98 0 0 4.342-1.253 6.028 1.704 0 0 3.298-1.179 5.208 1.159 0 0 .773-.467.772 1.68m-25.555-5.255s2.958-1.531 3.558.432c0 0 3.175-1.284 3.431.912 0 0 5.383-1.229 5.703 1.975 0 0 4.767-1.441 5.471 1.936 0 0 4.132-1.715 5.046 2.089 0 0 1.612-.771 2.079 1.572m-76.2-45.499s15.322 25.412 18.902 41.838m-10.111-36.932s11.447 21.158 15.247 35.16m-31.408-36.033s13.345 38.172 17.714 41.149m-18.247-34.024s10.793 34.016 14.012 35.756" stroke="#000072" stroke-miterlimit="10"/><path d="M130.195 196.271s.298-3.993 3.522-1.68c0 0 1.285-2.861 4.938-.364 0 0 .969-1.532 4.055-.285m-13.284 10.161s.289-2.81 2.564-1.711c0 0 .704-3.894 4.62-1.172 0 0 .726-4.096 5.048-1.589 0 0 2.716-3.589 5.844 0 0 0 2.289-2.146 3.961 0m-22.762 1.098s1.004-1.71 2.209-1.098c0 0 1.3-3.719 4.107-2.063 0 0 1.779-2.695 4.989-.946 0 0 3.342-1.553 5.39-.59m-17.066 13.399s.386-1.891 2.575-.803c0 0 .302-2.859 2.811-1.381 0 0 .643-3.925 5.108-1.495 0 0 .451-4.579 5.19-1.649 0 0 2.084-3.511 5.24-.979 0 0 .352-2 2.771-.299m-23.324 11.021s.999-3.129 3.548-1.238c0 0 .528-3.337 3.148-1.13 0 0 1.942-3.067 4.786-1.558 0 0 2.558-4.16 5.875-1.776 0 0 2.409-3.205 5.01-1.313 0 0 .092-1.222 2.553-.605m-24.183 10.724s.686-3.217 3.917-1.12c0 0 1.5-2.2 3.455-.718 0 0 1.681-3.722 5.155-1.581 0 0 2.332-3.389 6.078-1.256 0 0 1.712-2.83 5.009-1.209 0 0-.28-1.662 2.224-.604m-24.571 9.631s.752-2.823 3.36-1.407c0 0 1.554-2.954 3.914-.726 0 0 1.041-3.757 5.457-1.189 0 0 2.107-3.278 5.989-1.675 0 0 1.541-3.1 5.016-1.204 0 0 .722-1.539 2.477-.308m-26.01 9.312s1.058-3.615 3.949-2.803c0 0 2.597-1.411 3.907-.119 0 0 3.734-2.83 5.651-.814 0 0 3.859-3.077 6.197-1.117 0 0 2.635-2.233 5.214-.678 0 0 1.414-1.572 3.159-.415m1.659 4.316s-2.688-3.582-3.311-.212c0 0-4.588-2.773-5.021 1.2 0 0-4.506-3.414-6.091 1.047 0 0-4.608-2.556-5.779 1.043 0 0-2.939-3.101-3.393.851 0 0-1.535-.591-1.803.943m26.608-1.794s-2.485-2.768-3.146.37c0 0-3.652-2.424-5.197.854 0 0-3.939-2.008-5.47 1.717 0 0-4.213-2.37-5.331 1.715 0 0-2.894-1.181-3.884 1.768 0 0-1.488-.398-2.222 1.772m25.832-5.824s-1.875-3.418-2.751.838c0 0-2.327-1.46-5.052 1.54 0 0-3.485-1.205-5.399 1.123 0 0-2.76-.766-4.763 1.277-.11.112-.218.233-.323.362m.102-.129s-2.575-.236-3.912 2.185c0 0-1.858.08-2.715 2.289-.858 2.208-.403-.317-.403-.317" stroke="#000072" stroke-miterlimit="10"/><path fill-rule="evenodd" clip-rule="evenodd" d="M174.984 100.915c29.569 0 52.316 31.051 52.316 56.979s-41.693 36.406-52.316 36.917c-10.624.511-54.484-11.749-54.484-37.677 0-25.929 24.915-56.219 54.484-56.219z" fill="#FF850B"/><path d="M174.984 102.176c-29.489 0-53.234 30.065-53.234 54.958 0 6.473 2.915 12.56 8.666 18.092 12.81 12.323 36.181 18.338 43.909 18.339.212 0 .411-.004.599-.013 5.599-.27 18.497-3.177 29.643-8.796 9.801-4.941 21.483-13.612 21.483-26.862 0-25.767-22.307-55.718-51.066-55.718zm-.628 93.91c-8.289 0-32.179-6.062-45.664-19.035-6.265-6.027-9.442-12.728-9.442-19.917 0-12.979 6.163-27.442 16.486-38.69 10.961-11.941 25.266-18.79 39.248-18.79 14.069 0 27.633 6.82 38.194 19.205 9.625 11.288 15.372 25.881 15.372 39.035 0 11.508-7.907 21.576-22.866 29.118-11.471 5.783-24.823 8.779-30.641 9.059-.214.01-.444.015-.687.015" fill="#000072"/><path opacity=".5" fill-rule="evenodd" clip-rule="evenodd" d="M174.977 100.915c18.173 0 33.767 11.731 43.089 26.791.097.487.19.975.272 1.468-8.511-12.587-21.781-20.887-36.477-23.126.943.359 1.489.786 1.489 1.243 0 1.28-4.272 2.318-9.542 2.318-5.269 0-9.541-1.038-9.541-2.318 0-.457.545-.884 1.488-1.243-14.696 2.239-27.965 10.54-36.476 23.126l.047-.266c9.814-15.661 26.784-27.993 45.651-27.993z" fill="#fff"/><path fill-rule="evenodd" clip-rule="evenodd" d="M225.894 165.861c-7.353 20.136-41.452 28.495-50.912 28.95-9.363.45-44.536-9.021-52.753-29.024.63-10.895 6.116-13.873 16.261-8.549 4.173 2.189 8.417 4.473 11.78 2.734 19.197-9.927 30.919-8.056 44.058 0 6.145 3.767 12.142-1.852 15.904-3.566 11.982-5.458 17.479-1.641 15.662 9.455z" fill="#fff"/><path opacity=".3" fill-rule="evenodd" clip-rule="evenodd" d="M227.076 153.366c.149 1.521.228 3.033.228 4.528 0 .955-.063 1.886-.173 2.799l.012-.273c-1.461 17.304-35.996 30.516-54.575 31.582-15.509.891-46.484-15.953-51.693-31.582.01.324.026.648.041.971a22.463 22.463 0 01-.412-4.258c0-1.165.052-2.338.15-3.519l.081-.252c12.108 17.562 31.969 28.034 53.173 28.034 21.201 0 41.061-10.471 53.168-28.03z" fill="#000072"/><path fill-rule="evenodd" clip-rule="evenodd" d="M155.853 145.081c-1.653-.744-3.346-1.99-5.075-3.737-2.998.137-5.397 3.368-5.397 7.334 0 4.053 2.505 7.34 5.595 7.34s5.595-3.287 5.595-7.34a9.128 9.128 0 00-.718-3.597z" fill="#000072"/><path d="M202.808 138.17c-2.018 2.705-4.002 4.796-5.952 6.275-2.868 2.174-5.973 2.555-6.317.16 1.543-.179 3.151-.902 4.823-2.17 4.122-3.125 5.411-5.137 7.446-4.265z" fill="#000072"/><path fill-rule="evenodd" clip-rule="evenodd" d="M193.401 145.081c1.653-.744 3.346-1.99 5.076-3.737 2.998.137 5.397 3.368 5.397 7.334 0 4.053-2.505 7.34-5.595 7.34-3.091 0-5.595-3.287-5.595-7.34 0-1.307.26-2.534.717-3.597" fill="#000072"/><path fill-rule="evenodd" clip-rule="evenodd" d="M195.969 146.809c-.908 0-1.643.791-1.643 1.765 0 .975.735 1.766 1.643 1.766.907 0 1.642-.791 1.642-1.766 0-.974-.735-1.765-1.642-1.765z" fill="#fff"/><path fill-rule="evenodd" clip-rule="evenodd" d="M173.903 149.966c4.001 0 7.245 2.182 7.245 4.873 0 2.691-3.244 4.873-7.245 4.873-4.001 0-7.245-2.182-7.245-4.873 0-2.691 3.244-4.873 7.245-4.873z" fill="#000072"/><path d="M180.826 165.684c-2.55 0-5.017-.957-6.909-2.667a9.477 9.477 0 01-7.892 2.386c-3.327-.533-6.149-2.834-7.364-6.004a1.265 1.265 0 01.715-1.631 1.247 1.247 0 011.616.721 7.029 7.029 0 005.425 4.424 6.986 6.986 0 006.518-2.507 1.246 1.246 0 011.919-.022 7.824 7.824 0 006.624 2.75 7.855 7.855 0 006.078-3.826 1.243 1.243 0 011.714-.435c.592.357.785 1.132.431 1.729a10.356 10.356 0 01-8.875 5.082z" fill="#000072"/><path fill-rule="evenodd" clip-rule="evenodd" d="M173.906 161.202c2.605 2.499 5.164 3.562 7.679 3.188.622 16.468-15.925 15.797-15.362-.232 3.083.395 5.643-.59 7.683-2.956z" fill="#000072"/><path d="M167.469 165.504c.124 4.196 1.599 7.495 4.056 8.962 1.623.969 3.457.983 5.032.037 2.352-1.414 3.705-4.577 3.792-8.783-2.126-.069-4.263-.998-6.378-2.773-1.822 1.7-3.981 2.557-6.445 2.557h-.057zm6.624 12.216a7.476 7.476 0 01-3.841-1.084c-3.558-2.125-5.481-6.69-5.276-12.523l.048-1.38 1.358.174c2.669.341 4.818-.487 6.582-2.532l.857-.994.947.907c2.334 2.238 4.506 3.172 6.636 2.855l1.378-.205.053 1.404c.219 5.794-1.603 10.287-4.998 12.327a7.242 7.242 0 01-3.744 1.051z" fill="#000072"/><path fill-rule="evenodd" clip-rule="evenodd" d="M174.041 170.31a6.927 6.927 0 00-5.621 2.889c3.008 4.322 8.342 4.393 11.215-.036a6.924 6.924 0 00-5.594-2.853z" fill="#F06"/><path d="M170.039 173.228c1.158 1.289 2.615 1.987 4.127 1.973 1.462-.024 2.81-.72 3.871-1.98a5.699 5.699 0 00-3.996-1.651 5.69 5.69 0 00-4.002 1.658zm4.05 4.496c-2.574 0-5.007-1.38-6.691-3.8l-.513-.737.524-.729a8.198 8.198 0 016.632-3.41 8.204 8.204 0 016.601 3.367l.515.705-.476.733c-1.568 2.417-3.928 3.828-6.474 3.87l-.118.001z" fill="#000072"/><path fill-rule="evenodd" clip-rule="evenodd" d="M221.216 131.51c-8.026-13.381-17.648-22.441-28.868-27.177 22.008-31.115 31.631-22.056 28.868 27.177z" fill="#FF850B"/><path d="M194.264 103.804c9.85 4.535 18.545 12.486 25.901 23.679 1.342-30.336-2.736-38.409-6.488-39.74-2.863-1.015-8.54 1.004-19.413 16.061zm27.969 31.841l-2.089-3.482c-7.849-13.086-17.364-22.058-28.282-26.667l-1.444-.61.909-1.286c10.068-14.232 17.648-20.2 23.179-18.236 7.056 2.504 9.584 17.19 7.955 46.217l-.228 4.064z" fill="#000072"/><path fill-rule="evenodd" clip-rule="evenodd" d="M190.433 133.138c1.851-.765 3.717-.488 4.168.62.45 1.109-.686 2.628-2.536 3.395-1.851.765-3.717.487-4.168-.621-.45-1.108.686-2.628 2.536-3.394zm-32.245-.074c-1.851-.766-3.717-.488-4.168.62-.45 1.108.685 2.628 2.536 3.394 1.851.765 3.717.488 4.167-.62.451-1.109-.684-2.628-2.535-3.394zm-6.389 13.745c-.908 0-1.643.791-1.643 1.765 0 .975.735 1.766 1.643 1.766.907 0 1.642-.791 1.642-1.766 0-.974-.735-1.765-1.642-1.765z" fill="#fff"/><path fill-rule="evenodd" clip-rule="evenodd" d="M127.431 132.147c8.026-13.381 17.648-22.44 28.868-27.177-22.009-31.115-31.631-22.055-28.868 27.177z" fill="#FF850B"/><path d="M136.303 88.16c-.502 0-.945.082-1.336.22-3.752 1.332-7.83 9.405-6.488 39.741 7.356-11.193 16.051-19.144 25.901-23.68-9.389-13-14.903-16.281-18.077-16.281zm-9.892 48.123l-.228-4.064c-1.629-29.028.898-43.713 7.955-46.218 5.528-1.96 13.11 4.003 23.178 18.237l.91 1.286-1.445.609c-10.918 4.61-20.433 13.582-28.281 26.668l-2.089 3.482z" fill="#000072"/><path opacity=".65" fill-rule="evenodd" clip-rule="evenodd" d="M153.548 106.239a48.938 48.938 0 012.758-1.269c-13.64-19.284-22.521-23.13-26.646-11.55 4.393-8.143 12.355-3.87 23.887 12.818l.001.001z" fill="#fff"/><path fill-rule="evenodd" clip-rule="evenodd" d="M133.44 123.077c3.912-4.882 8.346-9.108 13.302-12.677-11.11-21.827-15.544-17.602-13.302 12.677z" fill="#000072"/><path d="M136.298 97.947a.42.42 0 00-.114.013c-.134.038-1.321.532-1.829 6.091-.342 3.746-.302 9.064.119 15.838a68.975 68.975 0 0110.663-9.871c-5.846-11.273-8.271-12.071-8.839-12.071zm-3.87 28.397l-.235-3.173c-1.706-23.04.718-26.9 3.314-27.638 3.104-.884 6.798 3.392 12.346 14.292l.493.969-.879.633c-4.839 3.484-9.232 7.671-13.056 12.443l-1.983 2.474z" fill="#000072"/><path opacity=".3" fill-rule="evenodd" clip-rule="evenodd" d="M134.881 97.414c-4.054 3.059-6.673 11.335-7.856 24.827.072 3.099.206 6.4.402 9.907a62.745 62.745 0 011.904-3.24l-.047.266c3.238-4.984 6.722-9.305 10.45-12.963a69.353 69.353 0 00-6.276 6.84l-.011.014-.009.012c-1.087-14.671-.605-23.225 1.443-25.663zm78.877-.638c4.054 3.06 6.673 11.335 7.855 24.828-.071 3.098-.205 6.4-.401 9.906a62.297 62.297 0 00-1.904-3.239l.047.265c-3.238-4.984-6.722-9.304-10.45-12.962a69.1 69.1 0 016.276 6.84l.01.013.01.013c1.087-14.671.605-23.226-1.443-25.664" fill="#000072"/><path opacity=".65" fill-rule="evenodd" clip-rule="evenodd" d="M195.108 105.602a48.24 48.24 0 00-2.758-1.269c13.64-19.284 22.521-23.13 26.646-11.552-4.393-8.141-12.356-3.868-23.887 12.82l-.001.001z" fill="#fff"/><path fill-rule="evenodd" clip-rule="evenodd" d="M215.202 122.439c-3.912-4.882-8.346-9.108-13.302-12.676 11.11-21.828 15.545-17.602 13.302 12.676z" fill="#000072"/><path d="M203.504 109.38a68.94 68.94 0 0110.663 9.872c.421-6.775.461-12.093.119-15.839-.508-5.559-1.695-6.053-1.829-6.09-.247-.07-2.544-.302-8.953 12.057zm12.709 16.327l-1.983-2.475c-3.823-4.771-8.216-8.958-13.056-12.443l-.879-.633.493-.969c5.548-10.9 9.238-15.175 12.347-14.292 2.595.738 5.019 4.598 3.313 27.638l-.235 3.174zM136.304 88.16c-.502 0-.946.082-1.337.22-3.751 1.332-7.83 9.405-6.487 39.741 7.356-11.193 16.05-19.144 25.901-23.68-9.389-13-14.904-16.281-18.077-16.281zm-9.893 48.123l-.228-4.064c-1.629-29.027.899-43.713 7.955-46.217 5.528-1.962 13.11 4.002 23.179 18.236l.909 1.286-1.444.61c-10.918 4.609-20.434 13.581-28.282 26.667l-2.089 3.482z" fill="#000072"/><path d="M174.984 102.176c-29.489 0-53.234 30.065-53.234 54.958 0 6.473 2.915 12.56 8.666 18.092 12.81 12.323 36.181 18.338 43.909 18.339.212 0 .411-.004.599-.013 5.599-.27 18.497-3.177 29.643-8.796 9.801-4.941 21.483-13.612 21.483-26.862 0-25.767-22.307-55.718-51.066-55.718zm-.628 93.91c-8.289 0-32.179-6.062-45.664-19.035-6.265-6.027-9.442-12.728-9.442-19.917 0-12.979 6.163-27.442 16.486-38.69 10.961-11.941 25.266-18.79 39.248-18.79 14.069 0 27.633 6.82 38.194 19.205 9.625 11.288 15.372 25.881 15.372 39.035 0 11.508-7.907 21.576-22.866 29.118-11.471 5.783-24.823 8.779-30.641 9.059-.214.01-.444.015-.687.015" fill="#000072"/><path opacity=".56" fill-rule="evenodd" clip-rule="evenodd" d="M176.257 151.919c1.093.291 1.901.82 1.806 1.184-.094.363-1.057.422-2.149.131-1.093-.29-1.902-.82-1.807-1.184.095-.363 1.058-.422 2.15-.131z" fill="#fff"/><path d="M147.352 138.17c2.018 2.705 4.002 4.796 5.952 6.275 2.869 2.174 5.974 2.555 6.317.16-1.543-.179-3.15-.902-4.823-2.17-4.122-3.125-5.411-5.137-7.446-4.265zm46.912-34.366c9.85 4.535 18.545 12.486 25.901 23.679 1.342-30.336-2.736-38.409-6.488-39.74-2.863-1.015-8.54 1.004-19.413 16.061zm27.969 31.841l-2.089-3.482c-7.849-13.086-17.364-22.058-28.282-26.667l-1.444-.61.909-1.286c10.068-14.232 17.648-20.2 23.179-18.236 7.056 2.504 9.584 17.19 7.955 46.217l-.228 4.064z" fill="#000072"/></svg>